<?xml version="1.0" encoding="UTF-8"?>
<svg xmlns="http://www.w3.org/2000/svg" viewBox="0 0 960 540" role="img" aria-label="">
  <rect width="960" height="540" fill="#ffffff"/>
  <circle cx="120" cy="80" r="150" fill="#ff5a5f" opacity=".12"/>
  <circle cx="820" cy="80" r="170" fill="#ffb000" opacity=".14"/>
  <circle cx="760" cy="470" r="210" fill="#ff5a5f" opacity=".10"/>
  <circle cx="180" cy="480" r="190" fill="#ffb000" opacity=".12"/>
  <g opacity=".55">
    <path d="M 42 72 C 190 22, 242 116, 356 58" fill="none" stroke="#ff5a5f" stroke-width="8" stroke-linecap="round" opacity=".26"/>
    <path d="M 612 492 C 732 390, 824 460, 916 348" fill="none" stroke="#ffb000" stroke-width="8" stroke-linecap="round" opacity=".24"/>
  </g>
  <g>
    
        <path d="M 370 240 C 358 148, 442 102, 534 138 C 618 170, 596 282, 510 284 L 488 284 C 466 284, 460 318, 488 326 C 428 344, 378 306, 370 240 Z" fill="white" stroke="#111827" stroke-width="10"/>
        <circle cx="416" cy="200" r="17" fill="#ff5a5f" opacity=".85"/>
        <circle cx="478" cy="174" r="17" fill="#ffb000" opacity=".85"/>
        <circle cx="532" cy="216" r="17" fill="#2354ff" opacity=".78"/>
      
  </g>
</svg>
