<?xml version="1.0" encoding="UTF-8"?>
<svg xmlns="http://www.w3.org/2000/svg" viewBox="0 0 640 640" role="img" aria-label="">
  <rect width="640" height="640" fill="#ffffff"/>
  <circle cx="96" cy="100" r="150" fill="#ff5a5f" opacity=".12"/>
  <circle cx="540" cy="120" r="170" fill="#ffb000" opacity=".14"/>
  <circle cx="520" cy="560" r="190" fill="#ff5a5f" opacity=".10"/>
  <circle cx="110" cy="540" r="160" fill="#ffb000" opacity=".12"/>
  <g opacity=".55">
    <path d="M 34 74 C 124 20, 210 100, 304 54" fill="none" stroke="#ff5a5f" stroke-width="8" stroke-linecap="round" opacity=".26"/>
    <path d="M 358 564 C 480 480, 560 522, 612 426" fill="none" stroke="#ffb000" stroke-width="8" stroke-linecap="round" opacity=".24"/>
  </g>
  <g>
    
        <path d="M 164 279 C 153 195, 230 152, 315 185 C 392 215, 372 318, 293 320 L 273 320 C 252 320, 247 351, 273 358 C 217 375, 171 340, 164 279 Z" fill="white" stroke="#111827" stroke-width="10"/>
        <circle cx="206" cy="242" r="17" fill="#ff5a5f" opacity=".85"/>
        <circle cx="263" cy="218" r="17" fill="#ffb000" opacity=".85"/>
        <circle cx="313" cy="257" r="17" fill="#2354ff" opacity=".78"/>
      
  </g>
</svg>
