<?xml version="1.0" encoding="UTF-8"?>
<svg xmlns="http://www.w3.org/2000/svg" viewBox="0 0 960 540" role="img" aria-label="">
  <rect width="960" height="540" fill="#ffffff"/>
  <circle cx="120" cy="80" r="150" fill="#2354ff" opacity=".12"/>
  <circle cx="820" cy="80" r="170" fill="#19b86a" opacity=".14"/>
  <circle cx="760" cy="470" r="210" fill="#2354ff" opacity=".10"/>
  <circle cx="180" cy="480" r="190" fill="#19b86a" opacity=".12"/>
  <g opacity=".55">
    <path d="M 42 72 C 190 22, 242 116, 356 58" fill="none" stroke="#2354ff" stroke-width="8" stroke-linecap="round" opacity=".26"/>
    <path d="M 612 492 C 732 390, 824 460, 916 348" fill="none" stroke="#19b86a" stroke-width="8" stroke-linecap="round" opacity=".24"/>
  </g>
  <g>
    
        <rect x="342" y="142" width="256" height="176" rx="22" fill="white" stroke="#111827" stroke-width="10"/>
        <line x1="342" y1="188" x2="598" y2="188" fill="none" stroke="#111827" stroke-width="12" stroke-linecap="round" stroke-linejoin="round"/>
        <circle cx="382" cy="166" r="8" fill="#2354ff"/>
        <circle cx="412" cy="166" r="8" fill="#19b86a"/>
        <rect x="378" y="216" width="78" height="70" rx="12" fill="#2354ff" opacity=".17"/>
        <rect x="480" y="216" width="84" height="24" rx="8" fill="#19b86a" opacity=".26"/>
        <rect x="480" y="256" width="84" height="30" rx="8" fill="#111827" opacity=".11"/>
      
  </g>
</svg>
