<?xml version="1.0" encoding="UTF-8"?>
<svg xmlns="http://www.w3.org/2000/svg" viewBox="0 0 640 640" role="img" aria-label="">
  <rect width="640" height="640" fill="#ffffff"/>
  <circle cx="96" cy="100" r="150" fill="#2354ff" opacity=".12"/>
  <circle cx="540" cy="120" r="170" fill="#19b86a" opacity=".14"/>
  <circle cx="520" cy="560" r="190" fill="#2354ff" opacity=".10"/>
  <circle cx="110" cy="540" r="160" fill="#19b86a" opacity=".12"/>
  <g opacity=".55">
    <path d="M 34 74 C 124 20, 210 100, 304 54" fill="none" stroke="#2354ff" stroke-width="8" stroke-linecap="round" opacity=".26"/>
    <path d="M 358 564 C 480 480, 560 522, 612 426" fill="none" stroke="#19b86a" stroke-width="8" stroke-linecap="round" opacity=".24"/>
  </g>
  <g>
    
        <rect x="138" y="189" width="256" height="176" rx="22" fill="white" stroke="#111827" stroke-width="10"/>
        <line x1="138" y1="231" x2="374" y2="231" fill="none" stroke="#111827" stroke-width="12" stroke-linecap="round" stroke-linejoin="round"/>
        <circle cx="175" cy="211" r="8" fill="#2354ff"/>
        <circle cx="203" cy="211" r="8" fill="#19b86a"/>
        <rect x="171" y="257" width="78" height="70" rx="12" fill="#2354ff" opacity=".17"/>
        <rect x="265" y="257" width="84" height="24" rx="8" fill="#19b86a" opacity=".26"/>
        <rect x="265" y="294" width="84" height="30" rx="8" fill="#111827" opacity=".11"/>
      
  </g>
</svg>
